#Comment line ignore any data following # character 
#Hierarchical Translation and Rotation (.htr) file 
[Header]	
#Header keywords are followed by a single value 
FileType HTR		#Single word string
DataType HTRS		#Translation followed by rotation and scale data
FileVersion 1		#integer
NumSegments 84		#integer
NumFrames 2		#integer
DataFrameRate 30		#integer, data frame rate in this file
EulerRotationOrder ZYX
CalibrationUnits mm
RotationUnits Degrees
GlobalAxisofGravity Y
BoneLengthAxis Y
ScaleFactor 1.00
[SegmentNames&Hierarchy]
#CHILD	PARENT
MASTER GLOBAL
root MASTER
chest root
L_mid_tent01 root
R_mid_tent01 root
spine01 root
Bip01_Neck chest
L_humerus chest
R_humerus chest
weapon_bone chest
Bip01_Head Bip01_Neck
eye_left_bone Bip01_Head
eye_right_bone Bip01_Head
L_forearm L_humerus
L_front_hand L_forearm
L_weapon_bone L_forearm
L_front_hand01_01 L_front_hand
L_front_hand02_01 L_front_hand
L_front_hand03_01 L_front_hand
L_front_hand01_02 L_front_hand01_01
L_front_hand02_02 L_front_hand02_01
L_front_hand03_02 L_front_hand03_01
R_forearm R_humerus
R_front_hand R_forearm
R_weapon_bone R_forearm
R_front_hand01_01 R_front_hand
R_front_hand02_01 R_front_hand
R_front_hand03_01 R_front_hand
R_front_hand01_02 R_front_hand01_01
R_front_hand02_02 R_front_hand02_01
R_front_hand03_02 R_front_hand03_01
null_rope01_connect L_mid_tent01
Rope1_Seg01 null_rope01_connect
Rope1_Seg02 Rope1_Seg01
Rope1_Seg03 Rope1_Seg02
Rope1_Seg04 Rope1_Seg03
Rope1_Seg05 Rope1_Seg04
Rope1_Seg06 Rope1_Seg05
Rope1_Seg07 Rope1_Seg06
Rope1_Seg09 Rope1_Seg07
L_mid_hand01 Rope1_Seg09
L_mid_hand02 Rope1_Seg09
L_mid_hand03 Rope1_Seg09
null_rope02_connect R_mid_tent01
Rope2_Seg01 null_rope02_connect
Rope2_Seg02 Rope2_Seg01
Rope2_Seg03 Rope2_Seg02
Rope2_Seg04 Rope2_Seg03
Rope2_Seg05 Rope2_Seg04
Rope2_Seg06 Rope2_Seg05
Rope2_Seg07 Rope2_Seg06
Rope2_Seg09 Rope2_Seg07
R_mid_hand01 Rope2_Seg09
R_mid_hand02 Rope2_Seg09
R_mid_hand03 Rope2_Seg09
spine02 spine01
spine03 spine02
pelvis spine03
null_rope03_connect pelvis
null_rope04_connect pelvis
Rope3_Seg01 null_rope03_connect
Rope3_Seg02 Rope3_Seg01
Rope3_Seg03 Rope3_Seg02
Rope3_Seg04 Rope3_Seg03
Rope3_Seg05 Rope3_Seg04
Rope3_Seg06 Rope3_Seg05
Rope3_Seg07 Rope3_Seg06
Rope3_Seg08 Rope3_Seg07
Rope3_Seg09 Rope3_Seg08
R_rear_hand01 Rope3_Seg09
R_rear_hand02 Rope3_Seg09
R_rear_hand03 Rope3_Seg09
Rope4_Seg01 null_rope04_connect
Rope4_Seg02 Rope4_Seg01
Rope4_Seg03 Rope4_Seg02
Rope4_Seg04 Rope4_Seg03
Rope4_Seg05 Rope4_Seg04
Rope4_Seg06 Rope4_Seg05
Rope4_Seg07 Rope4_Seg06
Rope4_Seg08 Rope4_Seg07
Rope4_Seg09 Rope4_Seg08
L_rear_hand01 Rope4_Seg09
L_rear_hand02 Rope4_Seg09
L_rear_hand03 Rope4_Seg09
[BasePosition]
#SegmentName Tx, Ty, Tz, Rx, Ry, Rz, BoneLength
MASTER 0.000000 0.000000 0.000000 -90.000000 0.000000 0.000000 10.000000 
root 0.000000 0.000000 0.000000 0.000000 0.000000 0.000000 10.000000 
chest 0.000000 0.000000 0.000000 0.000000 0.000000 0.000000 10.000000 
L_mid_tent01 0.000000 0.000000 0.000000 0.000000 0.000000 0.000000 10.000000 
R_mid_tent01 0.000000 0.000000 0.000000 0.000000 0.000000 0.000000 10.000000 
spine01 0.000000 0.000000 0.000000 0.000000 0.000000 0.000000 10.000000 
Bip01_Neck 0.000000 0.000000 0.000000 0.000000 0.000000 0.000000 10.000000 
L_humerus 0.000000 0.000000 0.000000 0.000000 0.000000 0.000000 10.000000 
R_humerus 0.000000 0.000000 0.000000 0.000000 0.000000 0.000000 10.000000 
weapon_bone 0.000000 0.000000 0.000000 0.000000 0.000000 0.000000 10.000000 
Bip01_Head 0.000000 0.000000 0.000000 0.000000 0.000000 0.000000 10.000000 
eye_left_bone 0.000000 0.000000 0.000000 0.000000 0.000000 0.000000 10.000000 
eye_right_bone 0.000000 0.000000 0.000000 0.000000 0.000000 0.000000 10.000000 
L_forearm 0.000000 0.000000 0.000000 0.000000 0.000000 0.000000 10.000000 
L_front_hand 0.000000 0.000000 0.000000 0.000000 0.000000 0.000000 10.000000 
L_weapon_bone 0.000000 0.000000 0.000000 0.000000 0.000000 0.000000 10.000000 
L_front_hand01_01 0.000000 0.000000 0.000000 0.000000 0.000000 0.000000 10.000000 
L_front_hand02_01 0.000000 0.000000 0.000000 0.000000 0.000000 0.000000 10.000000 
L_front_hand03_01 0.000000 0.000000 0.000000 0.000000 0.000000 0.000000 10.000000 
L_front_hand01_02 0.000000 0.000000 0.000000 0.000000 0.000000 0.000000 10.000000 
L_front_hand02_02 0.000000 0.000000 0.000000 0.000000 0.000000 0.000000 10.000000 
L_front_hand03_02 0.000000 0.000000 0.000000 0.000000 0.000000 0.000000 10.000000 
R_forearm 0.000000 0.000000 0.000000 0.000000 0.000000 0.000000 10.000000 
R_front_hand 0.000000 0.000000 0.000000 0.000000 0.000000 0.000000 10.000000 
R_weapon_bone 0.000000 0.000000 0.000000 0.000000 0.000000 0.000000 10.000000 
R_front_hand01_01 0.000000 0.000000 0.000000 0.000000 0.000000 0.000000 10.000000 
R_front_hand02_01 0.000000 0.000000 0.000000 0.000000 0.000000 0.000000 10.000000 
R_front_hand03_01 0.000000 0.000000 0.000000 0.000000 0.000000 0.000000 10.000000 
R_front_hand01_02 0.000000 0.000000 0.000000 0.000000 0.000000 0.000000 10.000000 
R_front_hand02_02 0.000000 0.000000 0.000000 0.000000 0.000000 0.000000 10.000000 
R_front_hand03_02 0.000000 0.000000 0.000000 0.000000 0.000000 0.000000 10.000000 
null_rope01_connect 0.000000 0.000000 0.000000 0.000000 0.000000 0.000000 10.000000 
Rope1_Seg01 0.000000 0.000000 0.000000 0.000000 0.000000 0.000000 10.000000 
Rope1_Seg02 0.000000 0.000000 0.000000 0.000000 0.000000 0.000000 10.000000 
Rope1_Seg03 0.000000 0.000000 0.000000 0.000000 0.000000 0.000000 10.000000 
Rope1_Seg04 0.000000 0.000000 0.000000 0.000000 0.000000 0.000000 10.000000 
Rope1_Seg05 0.000000 0.000000 0.000000 0.000000 0.000000 0.000000 10.000000 
Rope1_Seg06 0.000000 0.000000 0.000000 0.000000 0.000000 0.000000 10.000000 
Rope1_Seg07 0.000000 0.000000 0.000000 0.000000 0.000000 0.000000 10.000000 
Rope1_Seg09 0.000000 0.000000 0.000000 0.000000 0.000000 0.000000 10.000000 
L_mid_hand01 0.000000 0.000000 0.000000 0.000000 0.000000 0.000000 10.000000 
L_mid_hand02 0.000000 0.000000 0.000000 0.000000 0.000000 0.000000 10.000000 
L_mid_hand03 0.000000 0.000000 0.000000 0.000000 0.000000 0.000000 10.000000 
null_rope02_connect 0.000000 0.000000 0.000000 0.000000 0.000000 0.000000 10.000000 
Rope2_Seg01 0.000000 0.000000 0.000000 0.000000 0.000000 0.000000 10.000000 
Rope2_Seg02 0.000000 0.000000 0.000000 0.000000 0.000000 0.000000 10.000000 
Rope2_Seg03 0.000000 0.000000 0.000000 0.000000 0.000000 0.000000 10.000000 
Rope2_Seg04 0.000000 0.000000 0.000000 0.000000 0.000000 0.000000 10.000000 
Rope2_Seg05 0.000000 0.000000 0.000000 0.000000 0.000000 0.000000 10.000000 
Rope2_Seg06 0.000000 0.000000 0.000000 0.000000 0.000000 0.000000 10.000000 
Rope2_Seg07 0.000000 0.000000 0.000000 0.000000 0.000000 0.000000 10.000000 
Rope2_Seg09 0.000000 0.000000 0.000000 0.000000 0.000000 0.000000 10.000000 
R_mid_hand01 0.000000 0.000000 0.000000 0.000000 0.000000 0.000000 10.000000 
R_mid_hand02 0.000000 0.000000 0.000000 0.000000 0.000000 0.000000 10.000000 
R_mid_hand03 0.000000 0.000000 0.000000 0.000000 0.000000 0.000000 10.000000 
spine02 0.000000 0.000000 0.000000 0.000000 0.000000 0.000000 10.000000 
spine03 0.000000 0.000000 0.000000 0.000000 0.000000 0.000000 10.000000 
pelvis 0.000000 0.000000 0.000000 0.000000 0.000000 0.000000 10.000000 
null_rope03_connect 0.000000 0.000000 0.000000 0.000000 0.000000 0.000000 10.000000 
null_rope04_connect 0.000000 0.000000 0.000000 0.000000 0.000000 0.000000 10.000000 
Rope3_Seg01 0.000000 0.000000 0.000000 0.000000 0.000000 0.000000 10.000000 
Rope3_Seg02 0.000000 0.000000 0.000000 0.000000 0.000000 0.000000 10.000000 
Rope3_Seg03 0.000000 0.000000 0.000000 0.000000 0.000000 0.000000 10.000000 
Rope3_Seg04 0.000000 0.000000 0.000000 0.000000 0.000000 0.000000 10.000000 
Rope3_Seg05 0.000000 0.000000 0.000000 0.000000 0.000000 0.000000 10.000000 
Rope3_Seg06 0.000000 0.000000 0.000000 0.000000 0.000000 0.000000 10.000000 
Rope3_Seg07 0.000000 0.000000 0.000000 0.000000 0.000000 0.000000 10.000000 
Rope3_Seg08 0.000000 0.000000 0.000000 0.000000 0.000000 0.000000 10.000000 
Rope3_Seg09 0.000000 0.000000 0.000000 0.000000 0.000000 0.000000 10.000000 
R_rear_hand01 0.000000 0.000000 0.000000 0.000000 0.000000 0.000000 10.000000 
R_rear_hand02 0.000000 0.000000 0.000000 0.000000 0.000000 0.000000 10.000000 
R_rear_hand03 0.000000 0.000000 0.000000 0.000000 0.000000 0.000000 10.000000 
Rope4_Seg01 0.000000 0.000000 0.000000 0.000000 0.000000 0.000000 10.000000 
Rope4_Seg02 0.000000 0.000000 0.000000 0.000000 0.000000 0.000000 10.000000 
Rope4_Seg03 0.000000 0.000000 0.000000 0.000000 0.000000 0.000000 10.000000 
Rope4_Seg04 0.000000 0.000000 0.000000 0.000000 0.000000 0.000000 10.000000 
Rope4_Seg05 0.000000 0.000000 0.000000 0.000000 0.000000 0.000000 10.000000 
Rope4_Seg06 0.000000 0.000000 0.000000 0.000000 0.000000 0.000000 10.000000 
Rope4_Seg07 0.000000 0.000000 0.000000 0.000000 0.000000 0.000000 10.000000 
Rope4_Seg08 0.000000 0.000000 0.000000 0.000000 0.000000 0.000000 10.000000 
Rope4_Seg09 0.000000 0.000000 0.000000 0.000000 0.000000 0.000000 10.000000 
L_rear_hand01 0.000000 0.000000 0.000000 0.000000 0.000000 0.000000 10.000000 
L_rear_hand02 0.000000 0.000000 0.000000 0.000000 0.000000 0.000000 10.000000 
L_rear_hand03 0.000000 0.000000 0.000000 0.000000 0.000000 0.000000 10.000000 
#Beginning of Data. Separated by tabs
#Fr	Tx	Ty	Tz	Rx	Ry	Rz	SF
[MASTER]
78 -97.512817 -9.969788 -1233.149414 0.001346 0.001923 -20.001186 1237.039063
79 -97.512817 -9.969788 -1233.149414 0.001346 0.001923 -20.001186 1237.039063
[root]
78 97.288849 477.382019 2155.489014 -65.461472 -49.247871 -115.974838 2209.862305
79 105.422890 481.200531 2155.489014 -65.269814 -50.575069 -116.855209 2211.063232
[chest]
78 -84.512650 -34.090519 0.000000 2.178121 -1.053649 163.118271 91.129311
79 -84.512650 -34.090519 0.000000 1.497711 -1.201285 163.703827 91.129311
[L_mid_tent01]
78 27.298775 22.179373 -249.918777 36.601849 60.138493 126.952232 252.381729
79 27.298773 22.179375 -249.918777 36.503399 60.168556 126.849014 252.381729
[R_mid_tent01]
78 23.228794 24.509907 226.238495 36.945709 -59.327953 -153.433304 228.744751
79 23.228794 24.509907 226.238495 34.623531 -60.301460 -150.747131 228.744751
[spine01]
78 -0.361383 -0.195265 0.000000 -0.000001 -0.000007 22.052340 0.410763
79 -0.361383 -0.195265 0.000000 -0.000001 -0.000007 22.052340 0.410763
[Bip01_Neck]
78 165.484543 71.581718 0.000119 176.643677 -1.657967 43.431911 180.302734
79 165.484543 71.581718 0.000119 176.643677 -1.657966 43.431908 180.302734
[L_humerus]
78 -13.983130 -135.272980 -120.471481 178.964996 1.892241 -146.979980 181.680161
79 -13.983130 -135.272980 -120.471481 178.964996 1.892241 -146.979980 181.680161
[R_humerus]
78 -13.983309 -135.273102 125.287651 176.357590 6.146129 -145.149719 184.909012
79 -13.983309 -135.273102 125.287651 176.357590 6.146129 -145.149719 184.909012
[weapon_bone]
78 235.964890 -300.705902 0.000000 0.000000 -89.951546 -128.212341 382.234833
79 235.964890 -300.705902 0.000000 0.000000 -89.951546 -128.212341 382.234833
[Bip01_Head]
78 211.577759 185.273804 7.421719 5.030221 17.098082 -42.987278 281.330078
79 210.347260 184.995468 4.550530 4.959612 17.616680 -43.135044 280.160675
[eye_left_bone]
78 -24.626970 125.451866 -64.772606 0.000000 -90.000000 -99.840431 143.318359
79 -24.626970 125.451866 -64.772606 0.000000 -90.000000 -99.840431 143.318359
[eye_right_bone]
78 -24.626970 125.451866 64.327362 0.000000 -89.972023 80.156380 143.117676
79 -24.626970 125.451866 64.327362 0.000000 -89.972023 80.156380 143.117676
[L_forearm]
78 322.776093 0.000000 -0.000119 0.001130 -0.002057 -147.582275 322.776093
79 322.776093 0.000000 -0.000119 0.001130 -0.002057 -147.582291 322.776093
[L_front_hand]
78 241.149185 -0.042021 -3.300071 -155.525055 -1.836120 -27.420578 241.171753
79 241.149185 -0.042021 -3.300071 -155.350662 -1.835544 -27.422123 241.171753
[L_weapon_bone]
78 156.183838 0.000000 0.000000 0.000014 0.000007 0.000001 156.183838
79 156.183838 0.000000 0.000000 0.000014 0.000007 0.000001 156.183838
[L_front_hand01_01]
78 86.095154 20.947098 -0.655860 -0.366594 -0.477154 75.385582 88.609184
79 86.095154 20.947098 -0.655860 -0.366594 -0.477154 75.385574 88.609184
[L_front_hand02_01]
78 86.935165 -11.437475 24.513514 154.399826 -59.883842 -61.369606 91.046425
79 86.935165 -11.437475 24.513514 154.399796 -59.883835 -61.369587 91.046425
[L_front_hand03_01]
78 86.637497 -14.123976 -20.424902 -153.913879 58.118130 -62.702892 90.126129
79 86.637497 -14.123976 -20.424902 -153.913849 58.118122 -62.702866 90.126129
[L_front_hand01_02]
78 71.020905 -0.000179 0.000030 0.000334 -0.002323 -106.379684 71.020905
79 71.020905 -0.000179 0.000030 0.000334 -0.002323 -106.379700 71.020905
[L_front_hand02_02]
78 71.020927 -0.000119 0.000060 0.000334 -0.002323 -106.379684 71.020927
79 71.020927 -0.000119 0.000060 0.000334 -0.002323 -106.379700 71.020927
[L_front_hand03_02]
78 71.020905 -0.000060 0.000060 0.000334 -0.002323 -106.379684 71.020905
79 71.020905 -0.000060 0.000060 0.000334 -0.002323 -106.379700 71.020905
[R_forearm]
78 322.776428 -0.000060 0.000030 0.114825 0.181654 -148.389832 322.776428
79 322.776428 -0.000060 0.000030 0.114825 0.181654 -148.389832 322.776428
[R_front_hand]
78 238.847015 -0.006795 2.210259 -2.635298 -10.645461 -26.312506 238.857239
79 238.847015 -0.006795 2.210259 -2.635298 -10.645461 -26.312506 238.857239
[R_weapon_bone]
78 155.664093 0.002503 -0.000030 0.003487 0.001180 -90.988930 155.664078
79 155.664093 0.002503 -0.000030 0.003487 0.001180 -90.988930 155.664078
[R_front_hand01_01]
78 87.624611 14.231146 22.918642 -154.633499 -59.950626 61.746063 91.683487
79 87.624611 14.231146 22.918642 -154.633499 -59.950619 61.746044 91.683487
[R_front_hand02_01]
78 89.356956 14.367283 -19.491137 154.602661 58.302849 63.744389 92.579636
79 89.356956 14.367283 -19.491137 154.602661 58.302849 63.744389 92.579636
[R_front_hand03_01]
78 87.286232 -22.307278 -0.143439 0.162155 -0.423168 -75.767921 90.091743
79 87.286232 -22.307278 -0.143439 0.162155 -0.423168 -75.767921 90.091743
[R_front_hand01_02]
78 71.020905 0.000060 0.000119 0.002323 -0.000334 106.381714 71.020905
79 71.020905 0.000060 0.000119 0.002323 -0.000334 106.381714 71.020905
[R_front_hand02_02]
78 71.020844 -0.000030 -0.000119 0.002323 -0.000334 106.381714 71.020836
79 71.020844 -0.000030 -0.000119 0.002323 -0.000334 106.381714 71.020836
[R_front_hand03_02]
78 71.020905 0.000000 0.000030 0.002323 -0.000334 106.381714 71.020905
79 71.020905 0.000000 0.000030 0.002323 -0.000334 106.381714 71.020905
[null_rope01_connect]
78 328.732483 0.000000 -0.000238 -113.206558 -7.287213 133.776230 328.732483
79 328.732483 0.000000 -0.000238 -112.270813 -6.273820 134.366440 328.732483
[Rope1_Seg01]
78 -0.000096 0.000000 0.000000 -54.272842 38.144142 97.103706 0.000096
79 -0.000095 0.000000 0.000000 -52.752556 37.167828 97.237778 0.000095
[Rope1_Seg02]
78 139.999863 -0.000179 0.000000 -9.788287 3.690651 7.229895 139.999863
79 139.999863 -0.000179 0.000000 -9.903141 3.776036 7.209640 139.999863
[Rope1_Seg03]
78 139.999924 0.000060 -0.000060 -12.207789 4.225300 13.891616 139.999924
79 139.999924 0.000060 -0.000060 -12.478841 4.403023 14.052238 139.999924
[Rope1_Seg04]
78 139.999924 -0.000060 -0.000119 -10.466089 0.132625 27.350479 139.999924
79 139.999924 -0.000060 -0.000119 -10.797695 0.201564 28.790030 139.999924
[Rope1_Seg05]
78 139.999832 0.000119 -0.000060 -3.337220 -0.858329 27.650547 139.999832
79 139.999832 0.000119 -0.000060 -3.016673 -1.280897 27.551085 139.999832
[Rope1_Seg06]
78 139.999954 0.000119 -0.000060 1.639155 3.547441 15.074631 139.999954
79 139.999954 0.000119 -0.000060 1.742665 4.623932 13.433346 139.999954
[Rope1_Seg07]
78 139.999985 0.000060 0.000000 1.609878 1.161693 8.875948 139.999985
79 139.999985 0.000060 0.000000 1.597346 1.895699 8.584162 139.999985
[Rope1_Seg09]
78 121.602913 0.000119 -0.000089 -89.793175 -1.359789 0.847147 121.602913
79 121.602913 0.000119 -0.000089 -89.793175 -1.359789 0.847147 121.602913
[L_mid_hand01]
78 103.859421 1.038730 8.195221 130.544373 -67.584526 -38.866943 104.187431
79 103.859421 1.038730 8.195221 130.544373 -67.584534 -38.866943 104.187431
[L_mid_hand02]
78 105.572853 -4.139662 -10.864139 -168.923172 43.409321 -73.498909 106.211075
79 105.572853 -4.139662 -10.864139 -168.923172 43.409309 -73.498886 106.211075
[L_mid_hand03]
78 104.641464 17.579376 -3.913581 -6.012627 17.808174 74.893669 106.179977
79 104.641464 17.579376 -3.913581 -6.012628 17.808174 74.893669 106.179977
[null_rope02_connect]
78 328.732849 0.000179 -0.000119 -97.420921 -0.730557 -1.231856 328.732849
79 328.732849 0.000179 -0.000119 -96.423485 0.103217 -2.114556 328.732849
[Rope2_Seg01]
78 0.000096 0.000000 0.000000 89.907524 17.739042 27.986776 0.000096
79 0.000095 0.000000 0.000000 90.220848 16.101423 27.986374 0.000095
[Rope2_Seg02]
78 139.999741 -0.000060 -0.000119 -2.004883 -6.547902 -9.571406 139.999756
79 139.999741 -0.000060 -0.000119 -2.224738 -6.534359 -10.290519 139.999756
[Rope2_Seg03]
78 140.000107 0.000030 0.000000 -3.958459 -12.612408 -19.066879 140.000107
79 140.000107 0.000030 0.000000 -4.066020 -12.127423 -20.302317 140.000107
[Rope2_Seg04]
78 139.999802 0.000000 -0.000060 -5.809085 -14.950593 -29.212887 139.999802
79 139.999802 0.000000 -0.000060 -5.302902 -14.434808 -30.313906 139.999802
[Rope2_Seg05]
78 139.999985 -0.000060 0.000119 -1.727748 6.721064 -9.534331 139.999985
79 139.999985 -0.000060 0.000119 -1.342022 5.992590 -8.202917 139.999985
[Rope2_Seg06]
78 139.999893 -0.000030 -0.000119 -0.395246 5.183980 -5.151772 139.999893
79 139.999893 -0.000030 -0.000119 -0.207410 6.148870 -2.877376 139.999893
[Rope2_Seg07]
78 139.999893 0.000060 -0.000060 0.004217 2.333015 -4.248406 139.999893
79 139.999893 0.000060 -0.000060 -0.019014 2.633641 -3.481971 139.999893
[Rope2_Seg09]
78 121.338966 0.000089 -0.000060 33.793236 -1.359788 -0.847141 121.338966
79 121.338966 0.000089 -0.000060 33.793236 -1.359788 -0.847141 121.338966
[R_mid_hand01]
78 104.680779 11.144459 -10.335981 -16.212063 45.237240 70.462845 105.778534
79 104.680779 11.144459 -10.335981 -16.212063 45.237247 70.462852 105.778534
[R_mid_hand02]
78 104.070427 2.443552 8.231699 49.067368 -67.749771 39.286453 104.424065
79 104.070427 2.443552 8.231699 49.067387 -67.749794 39.286457 104.424065
[R_mid_hand03]
78 106.028137 -11.221827 -5.996406 -177.101105 15.551026 -76.585571 106.788818
79 106.028137 -11.221827 -5.996406 -177.101105 15.551026 -76.585571 106.788818
[spine02]
78 129.756927 0.001550 0.000119 0.553790 -4.021714 -15.669435 129.756927
79 129.756927 0.001550 0.000119 0.552825 -4.021845 -15.655912 129.756927
[spine03]
78 78.613892 0.081596 -4.899035 2.009673 3.773457 18.192425 78.766434
79 78.613892 0.081597 -4.899035 2.009114 3.773603 18.187815 78.766434
[pelvis]
78 169.435242 0.051022 0.000000 -0.070797 -0.177551 17.567820 169.435257
79 169.435242 0.051022 0.000000 -0.070778 -0.177559 17.555586 169.435257
[null_rope03_connect]
78 -1.257226 -2.466202 137.391083 -55.585159 -59.506214 159.486343 137.418976
79 -1.257226 -2.466202 137.391083 -56.518070 -59.391529 161.742386 137.418976
[null_rope04_connect]
78 -1.259640 -2.480268 -137.844437 -55.585159 -59.506214 159.486343 137.872513
79 -1.259640 -2.480268 -137.844437 -56.518070 -59.391529 161.742386 137.872513
[Rope3_Seg01]
78 0.000000 0.000057 0.000000 -46.146187 -84.713089 1.380454 0.000057
79 0.000000 0.000058 0.000000 -22.652411 -83.365433 -22.775682 0.000058
[Rope3_Seg02]
78 139.999924 -0.000119 0.000060 -11.759118 24.582897 -22.034487 139.999924
79 139.999924 -0.000119 0.000060 -11.833127 25.186434 -22.269358 139.999924
[Rope3_Seg03]
78 139.999924 -0.000119 0.000119 -5.790480 18.706114 -10.176797 139.999924
79 139.999924 -0.000119 0.000119 -5.033267 17.820713 -9.032772 139.999924
[Rope3_Seg04]
78 139.999924 0.000119 0.000000 -4.290889 15.829915 -9.658678 139.999924
79 139.999924 0.000119 0.000000 -4.808487 17.421505 -11.276588 139.999924
[Rope3_Seg05]
78 139.999924 -0.000238 0.000060 -21.207096 44.457771 -36.614113 139.999924
79 139.999924 -0.000238 0.000060 -21.687473 44.052601 -37.823204 139.999924
[Rope3_Seg06]
78 139.999893 -0.000119 -0.000060 -2.898328 24.665852 -12.655877 139.999893
79 139.999893 -0.000119 -0.000060 -2.488063 20.989710 -10.953398 139.999893
[Rope3_Seg07]
78 139.999771 0.000060 -0.000119 0.508689 6.778007 -3.154293 139.999771
79 139.999771 0.000060 -0.000119 0.335631 6.420908 -3.055987 139.999771
[Rope3_Seg08]
78 139.999985 -0.000060 0.000000 0.632993 3.156170 -1.509761 139.999985
79 139.999985 -0.000060 0.000000 0.541000 3.055850 -1.483044 139.999985
[Rope3_Seg09]
78 90.185997 -0.000179 -0.000060 89.793228 -1.359877 -0.847183 90.185997
79 90.185997 -0.000179 -0.000060 89.793228 -1.359877 -0.847183 90.185997
[R_rear_hand01]
78 103.366196 -6.073594 -10.757982 -177.714203 24.565960 -73.910950 104.101845
79 103.366196 -6.073594 -10.757982 -177.714203 24.565960 -73.910950 104.101845
[R_rear_hand02]
78 100.509819 12.039542 -7.992327 -12.874829 36.868488 72.167213 101.543350
79 100.509819 12.039542 -7.992327 -12.874829 36.868488 72.167213 101.543350
[R_rear_hand03]
78 101.539970 5.215704 5.435467 71.484581 -71.816628 21.513813 101.819031
79 101.539970 5.215704 5.435467 71.484573 -71.816597 21.513800 101.819031
[Rope4_Seg01]
78 -0.000114 0.000000 0.000000 19.339756 -12.044697 140.579971 0.000114
79 -0.000116 0.000000 0.000000 27.676689 -6.194605 137.846085 0.000116
[Rope4_Seg02]
78 139.999985 0.000060 0.000119 -18.320835 12.089679 15.698640 139.999985
79 139.999985 0.000060 0.000119 -24.470381 12.018363 17.471966 139.999985
[Rope4_Seg03]
78 139.999924 0.000000 -0.000238 -16.661354 -3.572829 6.463729 139.999924
79 139.999924 0.000000 -0.000238 -23.960243 -5.941636 8.872804 139.999924
[Rope4_Seg04]
78 139.999985 0.000000 0.000119 -42.863571 6.196311 16.382372 139.999985
79 139.999985 0.000000 0.000119 -39.856148 3.718987 16.551834 139.999985
[Rope4_Seg05]
78 139.999802 -0.000060 -0.000119 -76.290573 -9.004461 37.949947 139.999802
79 139.999802 -0.000060 -0.000119 -70.337303 -9.092151 36.431404 139.999802
[Rope4_Seg06]
78 139.999924 0.000000 0.000060 -6.264985 -17.297375 0.429580 139.999924
79 139.999924 0.000000 0.000060 -7.672284 -17.100481 1.868663 139.999924
[Rope4_Seg07]
78 139.999802 0.000000 0.000000 -1.279810 -7.738626 -0.769369 139.999802
79 139.999802 0.000000 0.000000 -1.639517 -7.913762 -0.355921 139.999802
[Rope4_Seg08]
78 139.999924 0.000000 0.000119 -2.005247 -4.014436 -0.492289 139.999924
79 139.999924 0.000000 0.000119 -2.145120 -4.135370 -0.306958 139.999924
[Rope4_Seg09]
78 90.185791 0.000060 0.000060 -135.617828 2.228885 0.850567 90.185791
79 90.185791 0.000060 0.000060 -135.617828 2.228885 0.850567 90.185791
[L_rear_hand01]
78 101.696655 -8.392275 -7.654577 -12.874829 -36.868488 107.832764 102.329041
79 101.696655 -8.392275 -7.654577 -12.874829 -36.868488 107.832764 102.329041
[L_rear_hand02]
78 102.726799 -1.568258 5.773216 71.484589 71.816643 158.486160 102.900848
79 102.726799 -1.568258 5.773216 71.484581 71.816628 158.486160 102.900848
[L_rear_hand03]
78 104.552910 9.721220 -10.420293 -177.714203 -24.565960 -106.089035 105.519653
79 104.552910 9.721220 -10.420293 -177.714203 -24.565960 -106.089035 105.519653
